<svg xmlns="http://www.w3.org/2000/svg" width="16" height="16" viewBox="0 0 16 16">
    <defs>
        <style>
            .prefix__cls-1{fill:#fff}
        </style>
    </defs>
    <g id="prefix__money">
        <path id="prefix__Path_16" d="M8 16A8 8 0 0 1 2.343 2.343a8 8 0 0 1 11.314 11.314A7.947 7.947 0 0 1 8 16zM8 1a7 7 0 1 0 7 7 7.008 7.008 0 0 0-7-7z" class="prefix__cls-1" data-name="Path 16"/>
        <path id="prefix__Path_17" d="M186.452 100.258a1.195 1.195 0 1 1 1.362-1.183.55.55 0 0 0 1.09 0A2.223 2.223 0 0 0 187 97v-.527a.55.55 0 0 0-1.09 0V97a2.223 2.223 0 0 0-1.91 2.075 2.31 2.31 0 0 0 2.452 2.129 1.195 1.195 0 1 1-1.362 1.183.55.55 0 0 0-1.09 0 2.223 2.223 0 0 0 1.907 2.075v.527a.55.55 0 0 0 1.09 0v-.527a2.223 2.223 0 0 0 1.907-2.075 2.31 2.31 0 0 0-2.452-2.129z" class="prefix__cls-1" data-name="Path 17" transform="translate(-178.452 -92.731)"/>
    </g>
</svg>
