<svg xmlns="http://www.w3.org/2000/svg" width="148" height="39.57" viewBox="0 0 148 39.57">
    <defs>
        <style>
            .prefix__cls-1{fill:#fff}
        </style>
    </defs>
    <g id="prefix__BIDHERO-LOGO2" transform="translate(-119.9 -176.5)">
        <g id="prefix__XMLID_2_" transform="translate(162.586 183.592)">
            <path id="prefix__XMLID_3_" d="M360.672 230.885a15.219 15.219 0 0 1-1.529 5.142 8.5 8.5 0 0 1-2.925 3.4 6.924 6.924 0 0 1-3.938 1.051 5.448 5.448 0 0 1-4.7-2.389l-.65 2.026h-3.73l4.569-26.418h4.091l-1.854 9.615a6.317 6.317 0 0 1 4.932-2.141 5.294 5.294 0 0 1 4.225 1.969 8.585 8.585 0 0 1 1.606 5.238 17.108 17.108 0 0 1-.097 2.507zm-3.919-2.294a4.973 4.973 0 0 0-.765-2.925 2.668 2.668 0 0 0-2.237-1.09 4.832 4.832 0 0 0-4.167 2.37l-1.338 7.7a3.233 3.233 0 0 0 3.25 2.428 4.067 4.067 0 0 0 3.4-1.587 9.171 9.171 0 0 0 1.72-4.607c.084-.989.137-1.753.137-2.289z" class="prefix__cls-1" transform="translate(-343.2 -213.681)"/>
            <path id="prefix__XMLID_6_" d="M441.972 243.105H437.9l3.231-18.619h4.069zm-.249-23.379a2.384 2.384 0 0 1 .612-1.625 2.3 2.3 0 0 1 1.663-.707 2.193 2.193 0 0 1 2.332 2.179 2.19 2.19 0 0 1-.65 1.625 2.376 2.376 0 0 1-1.644.669 2.189 2.189 0 0 1-1.644-.593 2 2 0 0 1-.669-1.547z" class="prefix__cls-1" transform="translate(-419.797 -216.668)"/>
            <path id="prefix__XMLID_9_" d="M478.915 230.79a14.8 14.8 0 0 1 1.548-5.161 8.81 8.81 0 0 1 2.982-3.422 6.87 6.87 0 0 1 3.938-1.07 5.449 5.449 0 0 1 4.435 2.122l1.8-9.558h4.091l-4.588 26.418h-3.651l.268-1.931a6.527 6.527 0 0 1-5.085 2.294 5.065 5.065 0 0 1-4.148-2.007 8.778 8.778 0 0 1-1.682-5.238 12.6 12.6 0 0 1 .057-2.084zm3.957 1.606a5.626 5.626 0 0 0 .669 3.384 2.673 2.673 0 0 0 2.332 1.3 4.774 4.774 0 0 0 4.072-2.294l1.4-7.99a3.174 3.174 0 0 0-3.135-2.217 4.212 4.212 0 0 0-3.766 2.065 10.874 10.874 0 0 0-1.572 5.756z" class="prefix__cls-1" transform="translate(-452.879 -213.681)"/>
            <path id="prefix__XMLID_12_" d="M574.767 223.464a6.844 6.844 0 0 1 5.276-2.37 4.569 4.569 0 0 1 3.938 1.873 7.438 7.438 0 0 1 .956 5.085l-1.988 11.967h-4.072l2.026-12.024a6.77 6.77 0 0 0 .038-1.376 2.245 2.245 0 0 0-2.485-2.16 5.032 5.032 0 0 0-4.053 2.237l-2.313 13.324H568l4.569-26.418h4.091z" class="prefix__cls-1" transform="translate(-525.027 -213.6)"/>
            <path id="prefix__XMLID_14_" d="M672.329 272a7.772 7.772 0 0 1-4.206-1.223 7.086 7.086 0 0 1-2.638-3.192 9.52 9.52 0 0 1-.65-4.53l.057-.707a12.57 12.57 0 0 1 1.663-5.1 9.533 9.533 0 0 1 3.364-3.441 8.084 8.084 0 0 1 4.378-1.109 6.09 6.09 0 0 1 5.238 2.6 9.515 9.515 0 0 1 1.319 6.6l-.249 1.8h-11.717a5.1 5.1 0 0 0 .9 3.575 3.615 3.615 0 0 0 2.887 1.4 6.283 6.283 0 0 0 4.855-2.294l2.065 2.16a7.946 7.946 0 0 1-3.078 2.581 9.313 9.313 0 0 1-4.188.88zm1.74-15.981c-2.16-.076-3.766 1.453-4.855 4.569l7.723.019.076-.363a5.269 5.269 0 0 0 .019-1.548 3.209 3.209 0 0 0-.956-1.931 3.139 3.139 0 0 0-2.008-.75z" class="prefix__cls-1" transform="translate(-603.32 -245.214)"/>
            <path id="prefix__XMLID_18_" d="M760.877 256.7a7.51 7.51 0 0 0-1.606-.172 4.762 4.762 0 0 0-4.263 2.217l-2.237 12.75H748.7l3.211-18.619 3.88-.019-.421 2.122a5.381 5.381 0 0 1 4.4-2.485 6.822 6.822 0 0 1 1.568.268z" class="prefix__cls-1" transform="translate(-671.185 -245.063)"/>
            <path id="prefix__XMLID_25_" d="M805.5 262.253a12.188 12.188 0 0 1 1.606-4.97 9.635 9.635 0 0 1 3.383-3.46 8.188 8.188 0 0 1 4.569-1.147 6.95 6.95 0 0 1 6.672 4.664 10.55 10.55 0 0 1 .554 4.779 12.85 12.85 0 0 1-1.606 5.238 9.59 9.59 0 0 1-3.4 3.479 8.606 8.606 0 0 1-4.607 1.147 7.077 7.077 0 0 1-4.11-1.262 7.168 7.168 0 0 1-2.542-3.364 10.912 10.912 0 0 1-.593-4.722zm4.014 2.351a4.972 4.972 0 0 0 .956 2.906 3.049 3.049 0 0 0 2.409 1.147 4.234 4.234 0 0 0 3.517-1.625 8.5 8.5 0 0 0 1.778-4.55l.1-1.682a5.905 5.905 0 0 0-.879-3.46 3.054 3.054 0 0 0-2.542-1.319 4.47 4.47 0 0 0-4.129 2.562 9.4 9.4 0 0 0-1.147 3.689 12.452 12.452 0 0 0-.06 2.328z" class="prefix__cls-1" transform="translate(-717.034 -245.202)"/>
        </g>
        <path id="prefix__XMLID_21_" d="M139.685 176.5a19.785 19.785 0 1 0 19.785 19.785 19.776 19.776 0 0 0-19.785-19.785zm-7.264 13.381a1.569 1.569 0 0 1 .688-1.051 1.6 1.6 0 0 1 1.223-.287l2.447.44a1.525 1.525 0 0 1 1.07.688 1.577 1.577 0 0 1 .268 1.243 1.525 1.525 0 0 1-.688 1.07 1.657 1.657 0 0 1-1.243.268l-2.447-.44a1.525 1.525 0 0 1-1.07-.688 1.759 1.759 0 0 1-.248-1.243zm-1.759 9.787a1.569 1.569 0 0 1 .688-1.051 1.6 1.6 0 0 1 1.223-.287l2.447.44a1.525 1.525 0 0 1 1.07.688 1.676 1.676 0 0 1 .268 1.243 1.525 1.525 0 0 1-.688 1.07 1.594 1.594 0 0 1-1.243.268l-2.447-.44a1.525 1.525 0 0 1-1.07-.688 1.585 1.585 0 0 1-.248-1.242zm19.709-6.538a5.421 5.421 0 0 1-1.262 2.734 6.887 6.887 0 0 1-2.39 1.663 6.442 6.442 0 0 1 1.682 2.37 5.451 5.451 0 0 1 .21 3.02 5.677 5.677 0 0 1-4.244 4.588 12.05 12.05 0 0 1-5.926.306l-7.341-1.338a1.525 1.525 0 0 1-1.07-.688 1.577 1.577 0 0 1-.268-1.243 1.532 1.532 0 0 1 .707-1.051 1.6 1.6 0 0 1 1.223-.287l7.341 1.338a3.247 3.247 0 0 0 2.542-.459 3.332 3.332 0 0 0 1.319-2.217 3.182 3.182 0 0 0-.4-2.466 3.418 3.418 0 0 0-2.275-1.4l-7.341-1.338a1.525 1.525 0 0 1-1.07-.688 1.657 1.657 0 0 1-.268-1.243 1.568 1.568 0 0 1 .688-1.051 1.6 1.6 0 0 1 1.223-.287l7.341 1.338a3.244 3.244 0 0 0 2.542-.44 3.332 3.332 0 0 0 1.319-2.217 3.182 3.182 0 0 0-.4-2.466 3.289 3.289 0 0 0-2.237-1.376l-7.379-1.338a1.525 1.525 0 0 1-1.071-.688 1.594 1.594 0 0 1-.268-1.243 1.569 1.569 0 0 1 .688-1.051 1.6 1.6 0 0 1 1.223-.287l7.341 1.319a11.738 11.738 0 0 1 5.41 2.332 5.705 5.705 0 0 1 2.411 5.855z" class="prefix__cls-1"/>
    </g>
</svg>
